<?xml version="1.0" encoding="UTF-8" standalone="no"?>
<!-- Created with Inkscape (http://www.inkscape.org/) -->

<svg
   xmlns:dc="http://purl.org/dc/elements/1.1/"
   xmlns:cc="http://creativecommons.org/ns#"
   xmlns:rdf="http://www.w3.org/1999/02/22-rdf-syntax-ns#"
   xmlns:svg="http://www.w3.org/2000/svg"
   xmlns="http://www.w3.org/2000/svg"
   xmlns:sodipodi="http://sodipodi.sourceforge.net/DTD/sodipodi-0.dtd"
   xmlns:inkscape="http://www.inkscape.org/namespaces/inkscape"
   width="1000"
   height="1000"
   viewBox="0 0 264.58333 264.58334"
   version="1.1"
   id="svg8"
   inkscape:version="0.92.5 (2060ec1f9f, 2020-04-08)"
   sodipodi:docname="cardinal-and-gold.svg"
   inkscape:export-filename="/home/xing/docs/fowl/cardinal-and-gold.png"
   inkscape:export-xdpi="96"
   inkscape:export-ydpi="96">
  <defs
     id="defs2" />
  <sodipodi:namedview
     id="base"
     pagecolor="#ffffff"
     bordercolor="#666666"
     borderopacity="1.0"
     inkscape:pageopacity="0"
     inkscape:pageshadow="2"
     inkscape:zoom="0.49497475"
     inkscape:cx="592.19736"
     inkscape:cy="900.96079"
     inkscape:document-units="mm"
     inkscape:current-layer="layer2"
     showgrid="false"
     units="px"
     inkscape:snap-bbox="true"
     inkscape:snap-smooth-nodes="false"
     inkscape:snap-intersection-paths="true"
     inkscape:object-paths="false"
     inkscape:object-nodes="true"
     inkscape:snap-others="true"
     inkscape:window-width="1880"
     inkscape:window-height="1025"
     inkscape:window-x="40"
     inkscape:window-y="27"
     inkscape:window-maximized="1" />
  <metadata
     id="metadata5">
    <rdf:RDF>
      <cc:Work
         rdf:about="">
        <dc:format>image/svg+xml</dc:format>
        <dc:type
           rdf:resource="http://purl.org/dc/dcmitype/StillImage" />
        <dc:title></dc:title>
      </cc:Work>
    </rdf:RDF>
  </metadata>
  <g
     inkscape:groupmode="layer"
     id="layer2"
     inkscape:label="Layer 2"
     transform="translate(0,-52.916667)">
    <circle
       style="fill:#9c0b00;fill-opacity:1;stroke:none;stroke-width:0.1505741"
       id="path4645"
       cx="132.29167"
       cy="185.20833"
       r="97.344048" />
    <flowRoot
       xml:space="preserve"
       id="flowRoot4647-6"
       style="font-style:normal;font-variant:normal;font-weight:normal;font-stretch:normal;font-size:40px;line-height:1em;font-family:'URW Gothic';-inkscape-font-specification:'URW Gothic, Normal';font-variant-ligatures:normal;font-variant-caps:normal;font-variant-numeric:normal;font-feature-settings:normal;text-align:start;letter-spacing:0px;word-spacing:0px;writing-mode:lr-tb;text-anchor:start;fill:#ffffff;fill-opacity:1;stroke:none;"
       transform="matrix(0.5272396,0,0,0.5272396,-203.32763,-139.35535)"><flowRegion
         id="flowRegion4649-4"
         style="font-style:normal;font-variant:normal;font-weight:normal;font-stretch:normal;font-size:40px;line-height:1em;font-family:'URW Gothic';-inkscape-font-specification:'URW Gothic, Normal';font-variant-ligatures:normal;font-variant-caps:normal;font-variant-numeric:normal;font-feature-settings:normal;text-align:start;writing-mode:lr-tb;text-anchor:start;fill:#ffffff;fill-opacity:1;"><rect
           id="rect4651-0"
           width="367.14285"
           height="160"
           x="521.42859"
           y="475.71429"
           style="font-style:normal;font-variant:normal;font-weight:normal;font-stretch:normal;font-size:40px;line-height:1em;font-family:'URW Gothic';-inkscape-font-specification:'URW Gothic, Normal';font-variant-ligatures:normal;font-variant-caps:normal;font-variant-numeric:normal;font-feature-settings:normal;text-align:start;writing-mode:lr-tb;text-anchor:start;fill:#ffffff;fill-opacity:1;" /></flowRegion><flowPara
         id="flowPara4653-0"
         style="font-style:normal;font-variant:normal;font-weight:bold;font-stretch:normal;font-size:39.99966812px;line-height:1em;font-family:'Gillius ADF No2';-inkscape-font-specification:'Gillius ADF No2, Bold';font-variant-ligatures:normal;font-variant-caps:normal;font-variant-numeric:normal;font-feature-settings:normal;text-align:start;writing-mode:lr-tb;text-anchor:start;fill:#ffffff;">ARCADIA</flowPara><flowPara
         id="flowPara4655-4"
         style="font-style:normal;font-variant:normal;font-weight:bold;font-stretch:normal;font-size:39.99966812px;line-height:1em;font-family:'Gillius ADF No2';-inkscape-font-specification:'Gillius ADF No2, Bold';font-variant-ligatures:normal;font-variant-caps:normal;font-variant-numeric:normal;font-feature-settings:normal;text-align:start;writing-mode:lr-tb;text-anchor:start;fill:#ffffff;">HIGH</flowPara></flowRoot>  </g>
  <g
     inkscape:label="Layer 1"
     inkscape:groupmode="layer"
     id="layer1"
     transform="translate(0,-32.41665)"
     sodipodi:insensitive="true">
    <g
       id="g4639"
       transform="translate(89.575279,-74.394784)">
      <path
         sodipodi:nodetypes="cccc"
         inkscape:connector-curvature="0"
         id="path4602-3"
         d="m 27.020762,290.18483 c 17.070965,8.06147 51.331415,25.85933 55.965285,10.39212 l -9.19158,33.83065 c 5.1877,-19.09392 -33.87978,-34.56606 -47.190358,-42.14735"
         style="fill:#000000;fill-opacity:1;stroke:none;stroke-width:0.19172259px;stroke-linecap:butt;stroke-linejoin:miter;stroke-opacity:1" />
      <path
         sodipodi:nodetypes="cccc"
         inkscape:connector-curvature="0"
         id="path4602"
         d="m 88.903317,265.21061 c -4.15998,28.11245 -11.80521,86.08006 8.5198,86.70988 h -44.14422 c 24.91487,0 28.08453,-64.33723 32.90249,-86.77082"
         style="fill:#000000;fill-opacity:1;stroke:none;stroke-width:0.26458332px;stroke-linecap:butt;stroke-linejoin:miter;stroke-opacity:1" />
      <path
         sodipodi:nodetypes="cscc"
         inkscape:connector-curvature="0"
         id="path4619"
         d="m 92.982137,242.76039 c -0.18898,17.57589 -5.04772,29.27479 -15.11904,40.06548 -15.875,17.00892 -44.03423,18.33185 -44.03423,18.33185 z"
         style="fill:#ffe500;fill-opacity:1;stroke:none;stroke-width:0.26458332px;stroke-linecap:butt;stroke-linejoin:miter;stroke-opacity:1" />
      <path
         sodipodi:nodetypes="ccccc"
         inkscape:connector-curvature="0"
         id="path3774"
         d="m 66.736497,218.90884 c 55.635333,0 17.64503,-66.13347 42.446483,-72.51861 3.94257,-1.05641 5.2636,5.92473 4.37787,9.23032 -20.797283,13.88278 26.5601,66.83863 -28.164863,98.74656 -14.9671,2.6727 -18.65949,-35.45827 -18.65949,-35.45827 z"
         style="fill:#ffffff;fill-opacity:1;stroke:none;stroke-width:0.26458332px;stroke-linecap:butt;stroke-linejoin:miter;stroke-opacity:1" />
      <path
         sodipodi:nodetypes="zcczz"
         inkscape:connector-curvature="0"
         id="path4625"
         d="m 109.93093,146.2805 c 3.93979,-4.3649 11.07871,-4.90157 14.20243,-2.91376 -7.17171,3.79647 0.22408,4.9067 0.11694,7.09935 -2.83974,2.67269 -4.58042,4.27491 -9.72194,5.07812 -5.14151,0.80321 -8.53722,-4.8988 -4.59743,-9.26371 z"
         style="fill:#ffffff;fill-opacity:1;stroke:none;stroke-width:0.26458332px;stroke-linecap:butt;stroke-linejoin:miter;stroke-opacity:1" />
      <path
         sodipodi:nodetypes="czcc"
         inkscape:connector-curvature="0"
         id="path69"
         d="m 76.576087,222.0275 c -21.38156,-7.48355 -34.47776,-8.8199 -58.264751,5.34539 -23.7869958,14.1653 -34.745038,50.78121 -34.745038,50.78121 z"
         style="fill:#ffe500;fill-opacity:1;stroke:none;stroke-width:0.26458332px;stroke-linecap:butt;stroke-linejoin:miter;stroke-opacity:1" />
      <path
         sodipodi:nodetypes="cccc"
         inkscape:connector-curvature="0"
         id="path12"
         d="m -55.455052,351.3859 h 46.8272402 c 18.8988098,0.37798 21.7751908,-20.08094 38.6990098,-37.08363 -50.246674,11.22532 -85.52625,37.08363 -85.52625,37.08363 z"
         style="fill:#ffe500;fill-opacity:1;stroke:none;stroke-width:0.26458332px;stroke-linecap:butt;stroke-linejoin:miter;stroke-opacity:1" />
      <path
         sodipodi:nodetypes="csccsc"
         inkscape:connector-curvature="0"
         id="path10"
         d="m -55.455052,351.3859 c 34.2105,-0.26728 64.1446802,-18.70886 85.52625,-37.08363 21.381549,-18.37476 34.210489,-36.68271 34.210489,-36.68271 0,0 -23.20305,-25.56929 2.45481,-58.71072 -26.15445,0 -51.485279,13.79144 -87.981049,59.24526 -21.75326,27.09268 -34.2105,73.2318 -34.2105,73.2318 z"
         style="fill:#ffffff;fill-opacity:1;stroke:none;stroke-width:0.26458332px;stroke-linecap:butt;stroke-linejoin:miter;stroke-opacity:1" />
      <path
         sodipodi:nodetypes="zccz"
         inkscape:connector-curvature="0"
         id="path51"
         d="m 90.474107,228.44197 c -5.34539,-9.35443 -22.25616,-13.55632 -36.34865,-5.34539 -10.35072,11.9527 -2.93979,48.81534 10.15623,54.52298 21.11411,-6.58676 31.53781,-39.82315 26.19242,-49.17759 z"
         style="fill:#ffff00;fill-opacity:1;stroke:none;stroke-width:0.26458332px;stroke-linecap:butt;stroke-linejoin:miter;stroke-opacity:1" />
      <path
         sodipodi:nodetypes="szczs"
         inkscape:connector-curvature="0"
         id="path3795"
         d="m 114.99609,148.22771 c 0.80181,6.01356 7.97223,3.52036 9.25421,2.23838 1.28198,-1.28198 9.43131,-5.59106 16.63753,-5.57925 -6.08757,-2.03389 -13.91283,-0.28166 -16.75447,-1.5201 -2.84164,-1.23843 -9.93908,-1.1526 -9.13727,4.86097 z"
         style="fill:#000000;fill-opacity:1;stroke:none;stroke-width:0.26458332px;stroke-linecap:butt;stroke-linejoin:miter;stroke-opacity:1" />
      <path
         sodipodi:nodetypes="zzzsz"
         inkscape:connector-curvature="0"
         id="path4621"
         d="m 93.513257,142.61185 c -1.09248,-5.02682 -2.41867,-17.92959 3.40068,-16.16091 5.819333,1.76868 0.61478,12.2049 -3.40068,16.16091 -4.01545,3.95607 -10.49779,12.61046 -4.43642,14.56752 4.48597,1.44837 5.52926,-9.54045 4.43642,-14.56752 z"
         style="fill:#ffff00;fill-opacity:1;stroke:none;stroke-width:0.26458332px;stroke-linecap:butt;stroke-linejoin:miter;stroke-opacity:1" />
      <path
         sodipodi:nodetypes="ccc"
         inkscape:connector-curvature="0"
         id="path4623"
         d="m 93.513257,142.61185 c 7.311893,-0.48761 15.669723,3.77838 15.669723,3.77838 -6.02534,0.29461 -11.064773,-1.32098 -15.669723,-3.77838 z"
         style="fill:#ffe500;fill-opacity:1;stroke:none;stroke-width:0.26458332px;stroke-linecap:butt;stroke-linejoin:miter;stroke-opacity:1" />
    </g>
  </g>
</svg>
